<svg width="26" height="25" viewBox="0 0 26 25" fill="none" xmlns="http://www.w3.org/2000/svg">
    <path d="M7.26237 19.9219C7.17556 20.0195 7.06706 20.0033 6.93685 19.873C6.79579 19.7537 6.77409 19.6506 6.87174 19.5638C6.95855 19.4661 7.06706 19.4824 7.19727 19.6126C7.32747 19.732 7.34917 19.8351 7.26237 19.9219ZM6.57878 18.929C6.67643 19.0592 6.67643 19.1623 6.57878 19.2383C6.49197 19.3034 6.39974 19.2654 6.30208 19.1243C6.20443 18.9833 6.20443 18.8856 6.30208 18.8314C6.39974 18.7554 6.49197 18.788 6.57878 18.929ZM5.58594 17.9525C5.53168 18.0284 5.46115 18.0393 5.37435 17.985C5.26584 17.9308 5.22786 17.8657 5.26042 17.7897C5.29297 17.7355 5.3635 17.7246 5.472 17.7572C5.58051 17.8114 5.61849 17.8765 5.58594 17.9525ZM6.09049 18.5059C6.02539 18.5818 5.93858 18.5655 5.83008 18.457C5.73242 18.3377 5.72157 18.2509 5.79753 18.1966C5.86263 18.1315 5.94944 18.1478 6.05794 18.2454C6.1556 18.3648 6.16645 18.4516 6.09049 18.5059ZM8.1901 20.3288C8.1467 20.459 8.04362 20.4915 7.88086 20.4264C7.6964 20.383 7.62587 20.3016 7.66927 20.1823C7.71267 20.0629 7.81575 20.025 7.97852 20.0684C8.15213 20.1226 8.22266 20.2094 8.1901 20.3288ZM9.21549 20.4102C9.21549 20.5295 9.12869 20.5892 8.95508 20.5892C8.77062 20.6109 8.67839 20.5512 8.67839 20.4102C8.67839 20.2908 8.76519 20.2311 8.9388 20.2311C9.12326 20.2094 9.21549 20.2691 9.21549 20.4102ZM10.1595 20.2474C10.1812 20.3559 10.1053 20.4319 9.93164 20.4753C9.75803 20.5187 9.66037 20.4753 9.63867 20.3451C9.61697 20.2148 9.69293 20.1335 9.86654 20.1009C10.0401 20.0792 10.1378 20.128 10.1595 20.2474ZM25.8496 4.6875V20.3125C25.8496 21.6037 25.3912 22.7078 24.4743 23.6247C23.5574 24.5416 22.4533 25 21.1621 25H17.5163C17.3427 25 17.2097 24.9946 17.1175 24.9837C17.0253 24.9729 16.9195 24.9457 16.8001 24.9023C16.6808 24.8589 16.594 24.7803 16.5397 24.6663C16.4855 24.5524 16.4583 24.4032 16.4583 24.2188V20.3288C16.4583 19.2763 16.1762 18.5059 15.612 18.0176C16.2305 17.9525 16.7866 17.8548 17.2803 17.7246C17.774 17.5944 18.284 17.3828 18.8102 17.0898C19.3365 16.7969 19.7759 16.4361 20.1286 16.0075C20.4812 15.5789 20.7688 15.0092 20.9912 14.2985C21.2136 13.5878 21.3249 12.7713 21.3249 11.849C21.3249 10.536 20.8963 9.4184 20.0391 8.49609C20.4405 7.50868 20.3971 6.40191 19.9089 5.17578C19.605 5.07812 19.1656 5.1378 18.5905 5.35482C18.0154 5.57183 17.5163 5.81055 17.0931 6.07096L16.4746 6.46159C15.4655 6.17947 14.4238 6.03841 13.3496 6.03841C12.2754 6.03841 11.2337 6.17947 10.2246 6.46159C10.051 6.34223 9.82042 6.19575 9.53288 6.02214C9.24533 5.84852 8.79232 5.63965 8.17383 5.39551C7.55534 5.15137 7.08876 5.07812 6.77409 5.17578C6.29666 6.40191 6.25868 7.50868 6.66016 8.49609C5.80295 9.4184 5.37435 10.536 5.37435 11.849C5.37435 12.7713 5.48557 13.5851 5.70801 14.2904C5.93045 14.9957 6.21528 15.5653 6.5625 15.9993C6.90972 16.4334 7.34646 16.7969 7.87272 17.0898C8.39898 17.3828 8.90896 17.5944 9.40267 17.7246C9.89638 17.8548 10.4525 17.9525 11.071 18.0176C10.6369 18.4082 10.3711 18.967 10.2734 19.694C10.0456 19.8025 9.80143 19.8839 9.54102 19.9382C9.2806 19.9924 8.97135 20.0195 8.61328 20.0195C8.25521 20.0195 7.89985 19.9029 7.5472 19.6696C7.19455 19.4363 6.89345 19.0972 6.64388 18.6523C6.43772 18.3051 6.17459 18.023 5.85449 17.806C5.5344 17.589 5.26584 17.4588 5.04883 17.4154L4.72331 17.3665C4.49544 17.3665 4.33811 17.3909 4.2513 17.4398C4.1645 17.4886 4.13737 17.551 4.16992 17.627C4.20247 17.7029 4.2513 17.7789 4.31641 17.8548C4.38151 17.9308 4.45204 17.9959 4.52799 18.0501L4.64193 18.1315C4.88064 18.24 5.11664 18.4462 5.34993 18.75C5.58322 19.0538 5.75412 19.3305 5.86263 19.5801L6.02539 19.9544C6.16645 20.3668 6.40516 20.7004 6.74154 20.9554C7.07791 21.2104 7.44141 21.3732 7.83203 21.4437C8.22266 21.5142 8.59972 21.5522 8.96322 21.5576C9.32671 21.563 9.62782 21.5441 9.86654 21.5007L10.2409 21.4355C10.2409 21.8479 10.2436 22.4067 10.249 23.112C10.2544 23.8173 10.2572 24.1862 10.2572 24.2188C10.2572 24.4575 10.1975 24.6392 10.0781 24.764C9.95877 24.8888 9.83941 24.9593 9.72005 24.9756C9.60069 24.9919 9.42166 25 9.18294 25H5.53711C4.24588 25 3.14182 24.5416 2.22493 23.6247C1.30805 22.7078 0.849609 21.6037 0.849609 20.3125V4.6875C0.849609 3.39627 1.30805 2.29221 2.22493 1.37533C3.14182 0.458442 4.24588 0 5.53711 0H21.1621C22.4533 0 23.5574 0.458442 24.4743 1.37533C25.3912 2.29221 25.8496 3.39627 25.8496 4.6875Z" fill="#390269"/>
</svg>
