<svg width="40" height="44" viewBox="0 0 40 44" fill="none" xmlns="http://www.w3.org/2000/svg">
    <path d="M35.1351 16.0976C35.1351 14.9117 34.1676 13.9512 32.973 13.9512H31.3514V15.0244C31.3514 15.6146 30.8649 16.0976 30.2703 16.0976H9.72973C9.13513 16.0976 8.64865 15.6146 8.64865 15.0244V13.9512H7.02703C5.83243 13.9512 4.86486 14.9117 4.86486 16.0976V21.5654C7.62703 22.0751 9.72973 24.479 9.72973 27.3659V38.6341H30.2703V27.3659C30.2703 24.479 32.373 22.0751 35.1351 21.5654V16.0976ZM20 26.8293C17.9135 26.8293 16.2162 25.1444 16.2162 23.0732C16.2162 21.002 17.9135 19.3171 20 19.3171C22.0865 19.3171 23.7838 21.002 23.7838 23.0732C23.7838 25.1444 22.0865 26.8293 20 26.8293ZM21.6216 23.0732C21.6216 23.9585 20.8919 24.6829 20 24.6829C19.1081 24.6829 18.3784 23.9585 18.3784 23.0732C18.3784 22.1878 19.1081 21.4634 20 21.4634C20.8919 21.4634 21.6216 22.1878 21.6216 23.0732ZM7.56757 27.3659V40.2439C7.56757 42.3151 5.87027 44 3.78378 44C1.6973 44 0 42.3151 0 40.2439V27.3659C0 25.2946 1.6973 23.6098 3.78378 23.6098C5.87027 23.6098 7.56757 25.2946 7.56757 27.3659ZM40 27.3659V40.2439C40 42.3151 38.3027 44 36.2162 44C34.1297 44 32.4324 42.3151 32.4324 40.2439V27.3659C32.4324 25.2946 34.1297 23.6098 36.2162 23.6098C38.3027 23.6098 40 25.2946 40 27.3659ZM29.1892 9.12195C29.1892 4.09415 25.0649 0 20 0C14.9351 0 10.8108 4.09415 10.8108 9.12195V13.9512H29.1892V9.12195ZM15.8973 10.4151C15.7729 10.5412 15.6187 10.6342 15.4487 10.6858C15.2787 10.7373 15.0984 10.7457 14.9243 10.7102C14.8541 10.6941 14.7892 10.678 14.7189 10.6512C14.6541 10.6244 14.5946 10.5868 14.5351 10.5493C14.4757 10.5117 14.4216 10.4688 14.373 10.4151C14.1676 10.2166 14.0541 9.94293 14.0541 9.65854C14.0541 9.37415 14.1676 9.10049 14.373 8.89659C14.4216 8.84829 14.4757 8.80537 14.5351 8.76781C14.5946 8.73024 14.6541 8.69268 14.7189 8.66585C14.7892 8.63902 14.8541 8.61756 14.9243 8.60683C15.2757 8.53707 15.6486 8.64976 15.8973 8.89659C16.1027 9.10049 16.2162 9.37415 16.2162 9.65854C16.2162 9.94293 16.1027 10.2166 15.8973 10.4151ZM25.9243 9.86781C25.9135 9.93756 25.8919 10.002 25.8649 10.0717C25.8378 10.1361 25.8 10.1951 25.7622 10.2541C25.7243 10.3132 25.6811 10.3668 25.627 10.4151C25.5022 10.5405 25.3479 10.6331 25.1781 10.6846C25.0082 10.7361 24.8282 10.7449 24.6541 10.7102C24.5838 10.6995 24.5135 10.678 24.4486 10.6512C24.3838 10.6244 24.3243 10.5868 24.2649 10.5493C24.1452 10.4737 24.0437 10.373 23.9676 10.2541C23.9243 10.1951 23.8919 10.1361 23.8649 10.0717C23.8378 10.002 23.8162 9.93756 23.8054 9.86781C23.7705 9.6954 23.7789 9.51712 23.8298 9.34869C23.8807 9.18025 23.9726 9.02683 24.0973 8.90195C24.1514 8.84829 24.2054 8.80537 24.2649 8.76781C24.3243 8.73024 24.3838 8.69268 24.4486 8.66585C24.5135 8.63902 24.5838 8.61756 24.6541 8.60683C25.0054 8.53707 25.3784 8.64976 25.627 8.90195C25.6811 8.95024 25.7243 9.0039 25.7622 9.06293C25.8 9.12195 25.8378 9.18098 25.8649 9.25073C25.8919 9.31512 25.9135 9.37951 25.9243 9.44927C25.9405 9.51902 25.9459 9.58878 25.9459 9.65854C25.9459 9.72829 25.9405 9.79805 25.9243 9.86781Z" fill="url(#paint0_linear_229_27)"/>
    <defs>
        <linearGradient id="paint0_linear_229_27" x1="0" y1="22.1887" x2="40" y2="22.1887" gradientUnits="userSpaceOnUse">
            <stop stop-color="#9FBFFF"/>
            <stop offset="1" stop-color="#D6B0FF"/>
        </linearGradient>
    </defs>
</svg>
