<svg width="27" height="24" viewBox="0 0 27 24" fill="none" xmlns="http://www.w3.org/2000/svg">
    <path d="M23.7513 0H3.24869C1.4545 0 0 1.45455 0 3.24874V7.22907C0 9.01455 1.4545 10.4778 3.24869 10.4778H23.7513C25.5455 10.4778 27 9.01455 27 7.22907V3.24874C27 1.45455 25.5455 0 23.7513 0ZM3.79741 5.23452C3.79741 4.52032 4.38099 3.92807 5.10386 3.92807H6.54098C7.2639 3.92807 7.84743 4.52032 7.84743 5.23452C7.84743 5.95745 7.2639 6.54098 6.54098 6.54098H5.10386C4.38099 6.54098 3.79741 5.95745 3.79741 5.23452ZM21.8961 6.54098H10.8697C10.1468 6.54098 9.56321 5.95745 9.56321 5.23452C9.56321 4.52032 10.1468 3.92807 10.8697 3.92807H21.8961C22.619 3.92807 23.2026 4.52032 23.2026 5.23452C23.2026 5.95745 22.619 6.54098 21.8961 6.54098ZM23.7513 12.6726H3.24869C1.4545 12.6726 0 14.1358 0 15.9213V19.9016C0 21.6958 1.4545 23.1503 3.24869 23.1503H23.7513C25.5455 23.1503 27 21.6958 27 19.9016V15.9213C27 14.1358 25.5455 12.6726 23.7513 12.6726ZM3.79741 17.9158C3.79741 17.1929 4.38099 16.6094 5.10386 16.6094H6.54098C7.2639 16.6094 7.84743 17.1929 7.84743 17.9158C7.84743 18.63 7.2639 19.2223 6.54098 19.2223H5.10386C4.38099 19.2223 3.79741 18.63 3.79741 17.9158ZM21.8961 19.2223H10.8697C10.1468 19.2223 9.56321 18.63 9.56321 17.9158C9.56321 17.1929 10.1468 16.6094 10.8697 16.6094H21.8961C22.619 16.6094 23.2026 17.1929 23.2026 17.9158C23.2026 18.63 22.619 19.2223 21.8961 19.2223Z" fill="url(#paint0_linear_14_442)"/>
    <defs>
        <linearGradient id="paint0_linear_14_442" x1="0" y1="11.6744" x2="27" y2="11.6744" gradientUnits="userSpaceOnUse">
            <stop stop-color="#9FBFFF"/>
            <stop offset="1" stop-color="#D6B0FF"/>
        </linearGradient>
    </defs>
</svg>
