<svg width="44" height="44" viewBox="0 0 44 44" fill="none" xmlns="http://www.w3.org/2000/svg">
    <path fill-rule="evenodd" clip-rule="evenodd" d="M5.86667 44H22C34.1513 44 44 34.1506 44 22.0015V22C44 9.8494 34.1513 0 22 0C16.1627 0 10.5674 2.31806 6.44603 6.44379C2.31736 10.5695 0 16.1656 0 22V38.1333C0 41.3732 2.62533 44 5.86667 44ZM11 29.3333H24.9333C25.74 29.3333 26.4 28.6763 26.4 27.8667C26.4 27.0571 25.74 26.4 24.9333 26.4H11C10.1933 26.4 9.53333 27.0571 9.53333 27.8667C9.53333 28.6763 10.1933 29.3333 11 29.3333ZM11 23.4667H33C33.8067 23.4667 34.4667 22.8096 34.4667 22C34.4667 21.1904 33.8067 20.5333 33 20.5333H11C10.1933 20.5333 9.53333 21.1904 9.53333 22C9.53333 22.8096 10.1933 23.4667 11 23.4667ZM11 17.6H33C33.8067 17.6 34.4667 16.9429 34.4667 16.1333C34.4667 15.3237 33.8067 14.6667 33 14.6667H11C10.1933 14.6667 9.53333 15.3237 9.53333 16.1333C9.53333 16.9429 10.1933 17.6 11 17.6Z" fill="url(#paint0_linear_25_586)"/>
    <defs>
        <linearGradient id="paint0_linear_25_586" x1="0" y1="22.1887" x2="44" y2="22.1887" gradientUnits="userSpaceOnUse">
            <stop stop-color="#9FBFFF"/>
            <stop offset="1" stop-color="#D6B0FF"/>
        </linearGradient>
    </defs>
</svg>
