<svg width="23" height="24" viewBox="0 0 23 24" fill="none" xmlns="http://www.w3.org/2000/svg">
    <path d="M22.3947 21.8647H20.5789V5.52256C20.5879 5.39018 20.5523 5.2586 20.4776 5.14888C20.403 5.03915 20.2938 4.95762 20.1674 4.9173L15.7368 3.0652V21.8647H14.5263V0.680458C14.5263 0.519933 14.4625 0.365982 14.349 0.252473C14.2355 0.138964 14.0816 0.0751953 13.9211 0.0751953H3.02632C2.86579 0.0751953 2.71184 0.138964 2.59833 0.252473C2.48482 0.365982 2.42105 0.519933 2.42105 0.680458V21.8647H0.605263C0.444737 21.8647 0.290786 21.9284 0.177278 22.0419C0.0637687 22.1555 0 22.3094 0 22.4699C0 22.6305 0.0637687 22.7844 0.177278 22.8979C0.290786 23.0114 0.444737 23.0752 0.605263 23.0752H22.3947C22.5553 23.0752 22.7092 23.0114 22.8227 22.8979C22.9362 22.7844 23 22.6305 23 22.4699C23 22.3094 22.9362 22.1555 22.8227 22.0419C22.7092 21.9284 22.5553 21.8647 22.3947 21.8647ZM17.5526 7.33835H18.7632C18.9237 7.33835 19.0776 7.40212 19.1911 7.51563C19.3047 7.62914 19.3684 7.78309 19.3684 7.94362C19.3653 8.10317 19.3006 8.25533 19.1877 8.36817C19.0749 8.48102 18.9227 8.54578 18.7632 8.54888H17.5526C17.3931 8.54578 17.2409 8.48102 17.1281 8.36817C17.0152 8.25533 16.9505 8.10317 16.9474 7.94362C16.9474 7.78309 17.0111 7.62914 17.1246 7.51563C17.2382 7.40212 17.3921 7.33835 17.5526 7.33835ZM17.5526 10.9699H18.7632C18.9237 10.9699 19.0776 11.0337 19.1911 11.1472C19.3047 11.2607 19.3684 11.4147 19.3684 11.5752C19.3684 11.7357 19.3047 11.8897 19.1911 12.0032C19.0776 12.1167 18.9237 12.1805 18.7632 12.1805H17.5526C17.3921 12.1805 17.2382 12.1167 17.1246 12.0032C17.0111 11.8897 16.9474 11.7357 16.9474 11.5752C16.9474 11.4147 17.0111 11.2607 17.1246 11.1472C17.2382 11.0337 17.3921 10.9699 17.5526 10.9699ZM17.5526 14.6015H18.7632C18.9227 14.6046 19.0749 14.6694 19.1877 14.7822C19.3006 14.8951 19.3653 15.0472 19.3684 15.2068C19.3684 15.3673 19.3047 15.5213 19.1911 15.6348C19.0776 15.7483 18.9237 15.812 18.7632 15.812H17.5526C17.3921 15.812 17.2382 15.7483 17.1246 15.6348C17.0111 15.5213 16.9474 15.3673 16.9474 15.2068C16.9505 15.0472 17.0152 14.8951 17.1281 14.7822C17.2409 14.6694 17.3931 14.6046 17.5526 14.6015ZM17.5526 18.2331H18.7632C18.9237 18.2331 19.0776 18.2969 19.1911 18.4104C19.3047 18.5239 19.3684 18.6778 19.3684 18.8384C19.3684 18.9989 19.3047 19.1528 19.1911 19.2663C19.0776 19.3798 18.9237 19.4436 18.7632 19.4436H17.5526C17.3921 19.4436 17.2382 19.3798 17.1246 19.2663C17.0111 19.1528 16.9474 18.9989 16.9474 18.8384C16.9474 18.6778 17.0111 18.5239 17.1246 18.4104C17.2382 18.2969 17.3921 18.2331 17.5526 18.2331ZM9.68421 3.70677H10.8947C11.0553 3.70677 11.2092 3.77054 11.3227 3.88405C11.4362 3.99756 11.5 4.15151 11.5 4.31204C11.5 4.47256 11.4362 4.62651 11.3227 4.74002C11.2092 4.85353 11.0553 4.9173 10.8947 4.9173H9.68421C9.52369 4.9173 9.36973 4.85353 9.25622 4.74002C9.14272 4.62651 9.07895 4.47256 9.07895 4.31204C9.07895 4.15151 9.14272 3.99756 9.25622 3.88405C9.36973 3.77054 9.52369 3.70677 9.68421 3.70677ZM9.68421 7.33835H10.8947C11.0553 7.33835 11.2092 7.40212 11.3227 7.51563C11.4362 7.62914 11.5 7.78309 11.5 7.94362C11.5 8.10414 11.4362 8.25809 11.3227 8.3716C11.2092 8.48511 11.0553 8.54888 10.8947 8.54888H9.68421C9.52369 8.54888 9.36973 8.48511 9.25622 8.3716C9.14272 8.25809 9.07895 8.10414 9.07895 7.94362C9.07895 7.78309 9.14272 7.62914 9.25622 7.51563C9.36973 7.40212 9.52369 7.33835 9.68421 7.33835ZM9.68421 10.9699H10.8947C11.0553 10.9699 11.2092 11.0337 11.3227 11.1472C11.4362 11.2607 11.5 11.4147 11.5 11.5752C11.5 11.7357 11.4362 11.8897 11.3227 12.0032C11.2092 12.1167 11.0553 12.1805 10.8947 12.1805H9.68421C9.52369 12.1805 9.36973 12.1167 9.25622 12.0032C9.14272 11.8897 9.07895 11.7357 9.07895 11.5752C9.07895 11.4147 9.14272 11.2607 9.25622 11.1472C9.36973 11.0337 9.52369 10.9699 9.68421 10.9699ZM9.68421 14.6015H10.8947C11.0553 14.6015 11.2092 14.6653 11.3227 14.7788C11.4362 14.8923 11.5 15.0462 11.5 15.2068C11.5 15.3673 11.4362 15.5213 11.3227 15.6348C11.2092 15.7483 11.0553 15.812 10.8947 15.812H9.68421C9.52369 15.812 9.36973 15.7483 9.25622 15.6348C9.14272 15.5213 9.07895 15.3673 9.07895 15.2068C9.07895 15.0462 9.14272 14.8923 9.25622 14.7788C9.36973 14.6653 9.52369 14.6015 9.68421 14.6015ZM5.98 3.70677H7.26316C7.42368 3.70677 7.57764 3.77054 7.69114 3.88405C7.80465 3.99756 7.86842 4.15151 7.86842 4.31204C7.86842 4.47256 7.80465 4.62651 7.69114 4.74002C7.57764 4.85353 7.42368 4.9173 7.26316 4.9173H6.05263C5.89211 4.9173 5.73815 4.85353 5.62465 4.74002C5.51114 4.62651 5.44737 4.47256 5.44737 4.31204C5.44737 4.15151 5.51114 3.99756 5.62465 3.88405C5.73815 3.77054 5.89211 3.70677 6.05263 3.70677H5.98ZM5.98 7.33835H7.26316C7.42368 7.33835 7.57764 7.40212 7.69114 7.51563C7.80465 7.62914 7.86842 7.78309 7.86842 7.94362C7.86842 8.10414 7.80465 8.25809 7.69114 8.3716C7.57764 8.48511 7.42368 8.54888 7.26316 8.54888H6.05263C5.89211 8.54888 5.73815 8.48511 5.62465 8.3716C5.51114 8.25809 5.44737 8.10414 5.44737 7.94362C5.44737 7.78309 5.51114 7.62914 5.62465 7.51563C5.73815 7.40212 5.89211 7.33835 6.05263 7.33835H5.98ZM5.98 10.9699H7.26316C7.42368 10.9699 7.57764 11.0337 7.69114 11.1472C7.80465 11.2607 7.86842 11.4147 7.86842 11.5752C7.86842 11.7357 7.80465 11.8897 7.69114 12.0032C7.57764 12.1167 7.42368 12.1805 7.26316 12.1805H6.05263C5.89211 12.1805 5.73815 12.1167 5.62465 12.0032C5.51114 11.8897 5.44737 11.7357 5.44737 11.5752C5.44737 11.4147 5.51114 11.2607 5.62465 11.1472C5.73815 11.0337 5.89211 10.9699 6.05263 10.9699H5.98ZM5.98 14.6015H7.26316C7.42368 14.6015 7.57764 14.6653 7.69114 14.7788C7.80465 14.8923 7.86842 15.0462 7.86842 15.2068C7.86842 15.3673 7.80465 15.5213 7.69114 15.6348C7.57764 15.7483 7.42368 15.812 7.26316 15.812H6.05263C5.89211 15.812 5.73815 15.7483 5.62465 15.6348C5.51114 15.5213 5.44737 15.3673 5.44737 15.2068C5.44737 15.0462 5.51114 14.8923 5.62465 14.7788C5.73815 14.6653 5.89211 14.6015 6.05263 14.6015H5.98ZM9.07895 21.8647V19.4436H7.86842V21.8647H6.6579V18.802C6.66716 18.6479 6.735 18.5031 6.84752 18.3973C6.96004 18.2916 7.10873 18.2328 7.26316 18.2331H9.68421C9.84474 18.2331 9.99869 18.2969 10.1122 18.4104C10.2257 18.5239 10.2895 18.6778 10.2895 18.8384V21.8647H9.07895Z" fill="url(#paint0_linear_14_436)"/>
    <defs>
        <linearGradient id="paint0_linear_14_436" x1="0" y1="11.6738" x2="23" y2="11.6738" gradientUnits="userSpaceOnUse">
            <stop stop-color="#9FBFFF"/>
            <stop offset="1" stop-color="#D6B0FF"/>
        </linearGradient>
    </defs>
</svg>
