<svg width="49" height="44" viewBox="0 0 49 44" fill="none" xmlns="http://www.w3.org/2000/svg">
    <path fill-rule="evenodd" clip-rule="evenodd" d="M6.25323 0C2.79967 0 0 2.77814 0 6.20513V37.7949C0 41.2219 2.79967 44 6.25323 44H42.6357C46.0893 44 48.8889 41.2219 48.8889 37.7949V6.20513C48.8889 2.77814 46.0893 0 42.6357 0H6.25323ZM31.8346 10.7179C31.8346 9.78332 32.5982 9.02564 33.5401 9.02564H40.3611C40.3627 9.02564 40.3652 9.02564 40.3668 9.02564C40.5962 9.02632 40.8149 9.07192 41.0146 9.15405C41.2156 9.23664 41.4041 9.35905 41.5676 9.52131C41.7311 9.68357 41.8546 9.87055 41.9378 10.0702C42.0106 10.2443 42.0549 10.4331 42.0649 10.6309C42.0665 10.6597 42.0672 10.6888 42.0672 10.7179V17.4872C42.0672 18.4218 41.3036 19.1795 40.3618 19.1795C39.4199 19.1795 38.6563 18.4218 38.6563 17.4872V14.8035L30.1981 23.1966C28.2764 25.1037 25.1603 25.1037 23.2386 23.1966C22.6487 22.6113 21.6923 22.6113 21.1025 23.1966L9.73305 34.4786C9.06705 35.1395 7.98722 35.1395 7.32121 34.4786C6.65521 33.8177 6.65521 32.7464 7.32121 32.0855L18.6907 20.8034C20.6125 18.8963 23.7286 18.8963 25.6503 20.8034C26.2401 21.3887 27.1965 21.3887 27.7864 20.8034L36.2444 12.4103H33.5401C32.5982 12.4103 31.8346 11.6526 31.8346 10.7179Z" fill="url(#paint0_linear_25_592)"/>
    <defs>
        <linearGradient id="paint0_linear_25_592" x1="0" y1="22.1887" x2="48.8889" y2="22.1887" gradientUnits="userSpaceOnUse">
            <stop stop-color="#9FBFFF"/>
            <stop offset="1" stop-color="#D6B0FF"/>
        </linearGradient>
    </defs>
</svg>
