<svg width="40" height="43" viewBox="0 0 40 43" fill="none" xmlns="http://www.w3.org/2000/svg">
    <path d="M13.9868 39.5413V33.0847C13.9868 31.4486 15.3172 30.1194 16.9651 30.1091H23.016C24.6713 30.1091 26.0132 31.4413 26.0132 33.0847V39.5226C26.0132 40.9416 27.1664 42.0949 28.5957 42.1053H32.7238C34.6519 42.1102 36.5026 41.3533 37.8677 40.0015C39.2328 38.6497 40 36.8142 40 34.9V16.5597C40 15.0134 39.3096 13.5468 38.115 12.5547L24.0905 1.41951C21.639 -0.528163 18.1376 -0.465246 15.7587 1.56923L2.03582 12.5547C0.784717 13.5175 0.0369522 14.9886 0 16.5597V34.8813C0 38.871 3.25765 42.1053 7.27615 42.1053H11.3101C11.9983 42.1102 12.66 41.8423 13.1484 41.3609C13.6368 40.8795 13.9114 40.2245 13.9114 39.5413H13.9868Z" fill="url(#paint0_linear_40_459)"/>
    <defs>
        <linearGradient id="paint0_linear_40_459" x1="0" y1="21.0527" x2="40" y2="21.0527" gradientUnits="userSpaceOnUse">
            <stop stop-color="#283487"/>
            <stop offset="1" stop-color="#55178C"/>
        </linearGradient>
    </defs>
</svg>
