<svg width="30" height="30" viewBox="0 0 30 30" fill="none" xmlns="http://www.w3.org/2000/svg">
    <path d="M21.3735 0.65704L0.656438 21.3752C0.235473 21.7987 -0.000561266 22.3717 1.00225e-06 22.9688C0.000563271 23.5658 0.237676 24.1384 0.659438 24.561L5.43706 29.3412C5.85996 29.7626 6.43247 29.9994 7.02948 30C7.62649 30.0006 8.19945 29.7648 8.62314 29.3442L29.3432 8.62604C29.7639 8.20233 30 7.62947 30 7.03239C30 6.43531 29.7639 5.86245 29.3432 5.43874L24.564 0.65704C24.1398 0.236166 23.5664 0 22.9688 0C22.3711 0 21.7977 0.236166 21.3735 0.65704ZM5.89307 22.9666L4.75454 24.1051L1.91047 21.2597L3.049 20.1213L5.89307 22.9666ZM10.4472 22.9666L9.30866 24.1051L4.18603 18.9829L5.32456 17.843L10.4472 22.9666ZM10.4472 18.4129L9.30866 19.5514L6.46158 16.7075L7.60161 15.5676L10.4472 18.4129ZM12.7242 16.1361L11.5857 17.2745L8.74164 14.4307L9.88017 13.2907L12.7242 16.1361ZM17.2769 16.1361L16.1383 17.2745L11.0172 12.1538L12.1557 11.0154L17.2769 16.1361ZM17.2769 11.5839L16.1383 12.7223L13.2943 9.87846L14.4328 8.74003L17.2769 11.5839ZM19.5539 9.3085L18.4154 10.4469L15.5698 7.6016L16.7083 6.46318L19.5539 9.3085ZM24.108 9.3085L22.968 10.4469L17.8469 5.32475L18.9854 4.18482L24.108 9.3085ZM24.1065 4.75628L22.968 5.89471L20.1239 3.04789L21.2625 1.91096L24.1065 4.75628Z" fill="url(#paint0_linear_5_739)"/>
    <defs>
        <linearGradient id="paint0_linear_5_739" x1="0" y1="15" x2="30" y2="15" gradientUnits="userSpaceOnUse">
            <stop stop-color="#283487"/>
            <stop offset="1" stop-color="#55178C"/>
        </linearGradient>
    </defs>
</svg>
