<svg width="29" height="34" viewBox="0 0 29 34" fill="none" xmlns="http://www.w3.org/2000/svg">
    <path d="M27.841 5.79448L15.241 0.12308C15.0605 0.0419488 14.8649 0 14.667 0C14.4691 0 14.2735 0.0419488 14.093 0.12308L1.493 5.79448C1.24693 5.90509 1.03807 6.08444 0.891529 6.31095C0.744991 6.53747 0.66702 6.8015 0.666997 7.07128V20.1767C0.665841 21.1738 0.873532 22.16 1.27669 23.072C1.67986 23.9839 2.26955 24.8013 3.0078 25.4715L10.0078 31.7995C11.283 32.9581 12.9441 33.6 14.667 33.6C16.3899 33.6 18.051 32.9581 19.3262 31.7995L26.3262 25.4715C27.0644 24.8013 27.6541 23.9839 28.0573 23.072C28.4605 22.16 28.6681 21.1738 28.667 20.1767V7.07128C28.667 6.8015 28.589 6.53747 28.4425 6.31095C28.2959 6.08444 28.0871 5.90509 27.841 5.79448ZM21.261 13.5897L14.261 20.5897C13.9985 20.8521 13.6424 20.9996 13.2712 20.9996C12.9 20.9996 12.5439 20.8521 12.2814 20.5897L8.08139 16.3897C7.82637 16.1256 7.68526 15.772 7.68845 15.4049C7.69164 15.0378 7.83888 14.6867 8.09845 14.4271C8.35802 14.1676 8.70916 14.0203 9.07623 14.0171C9.44331 14.0139 9.79695 14.1551 10.061 14.4101L13.267 17.6203L19.2772 11.6101C19.5412 11.3551 19.8949 11.2139 20.262 11.2171C20.629 11.2203 20.9802 11.3676 21.2397 11.6271C21.4993 11.8867 21.6465 12.2378 21.6497 12.6049C21.6529 12.972 21.5118 13.3256 21.2568 13.5897H21.261Z" fill="url(#paint0_linear_5_733)"/>
    <defs>
        <linearGradient id="paint0_linear_5_733" x1="0.666992" y1="16.8" x2="28.667" y2="16.8" gradientUnits="userSpaceOnUse">
            <stop stop-color="#283487"/>
            <stop offset="1" stop-color="#55178C"/>
        </linearGradient>
    </defs>
</svg>
