<svg width="44" height="44" viewBox="0 0 44 44" fill="none" xmlns="http://www.w3.org/2000/svg">
    <path fill-rule="evenodd" clip-rule="evenodd" d="M8 0C3.58172 0 0 3.58172 0 8V36C0 40.4183 3.58172 44 8 44H36C40.4183 44 44 40.4183 44 36V8C44 3.58172 40.4183 0 36 0H8ZM22.4887 35.2206C19.1209 35.2212 15.871 33.9803 13.3607 31.7351C10.8504 29.49 9.25581 26.3982 8.88198 23.0512C8.8622 22.8714 8.87803 22.6895 8.92855 22.5159C8.97908 22.3422 9.06331 22.1802 9.17644 22.0391C9.40492 21.7542 9.73723 21.5716 10.1003 21.5317C10.4633 21.4918 10.8274 21.5977 11.1123 21.8262C11.3973 22.0546 11.5798 22.387 11.6198 22.75C11.8903 25.2177 12.9913 27.5203 14.7422 29.2801C16.4931 31.04 18.7899 32.1528 21.2562 32.436C23.7225 32.7192 26.2118 32.1561 28.3161 30.839C29.8498 29.8789 31.1125 28.5599 32.0032 27.0083H27.9643C27.6013 27.0083 27.2531 26.8641 26.9964 26.6074C26.7396 26.3507 26.5954 26.0025 26.5954 25.6394C26.5954 25.2764 26.7396 24.9282 26.9964 24.6715C27.2531 24.4148 27.6013 24.2705 27.9643 24.2705H33.6998C33.8167 24.2295 33.9388 24.2043 34.063 24.196C34.2479 24.1837 34.4334 24.2091 34.6081 24.2705H34.8088C35.1718 24.2705 35.52 24.4148 35.7767 24.6715C36.0334 24.9282 36.1776 25.2764 36.1776 25.6394V32.4839C36.1776 32.8469 36.0334 33.1951 35.7767 33.4518C35.52 33.7085 35.1718 33.8528 34.8088 33.8528C34.4457 33.8528 34.0975 33.7085 33.8408 33.4518C33.5841 33.1951 33.4399 32.8469 33.4399 32.4839V29.771C32.5903 30.8981 31.5666 31.8937 30.3996 32.7171C28.0852 34.3499 25.3212 35.2246 22.4887 35.2206ZM34.7266 21.5317C34.3882 21.5338 34.061 21.4104 33.8082 21.1854C33.5554 20.9604 33.3949 20.6498 33.3577 20.3134C33.075 17.8575 31.9697 15.5695 30.2216 13.8216C28.4735 12.0736 26.1853 10.9686 23.7294 10.6862C21.2735 10.4038 18.7943 10.9607 16.695 12.2662C15.1683 13.2157 13.9078 14.5206 13.0135 16.0572H17.0132C17.3763 16.0572 17.7244 16.2014 17.9811 16.4582C18.2379 16.7149 18.3821 17.063 18.3821 17.4261C18.3821 17.7892 18.2379 18.1373 17.9811 18.3941C17.7244 18.6508 17.3763 18.795 17.0132 18.795H11.2989C11.1839 18.8348 11.0639 18.8592 10.9418 18.8674C10.7591 18.8795 10.5758 18.8549 10.4028 18.795H10.1688C9.8057 18.795 9.45752 18.6508 9.2008 18.3941C8.94409 18.1373 8.79987 17.7892 8.79987 17.4261V10.5817C8.79987 10.2186 8.94409 9.87042 9.2008 9.61371C9.45752 9.35699 9.8057 9.21277 10.1688 9.21277C10.5318 9.21277 10.88 9.35699 11.1367 9.61371C11.3934 9.87042 11.5376 10.2186 11.5376 10.5817V13.3177C12.5447 11.9696 13.7989 10.8093 15.2456 9.90451C17.8741 8.26065 20.9827 7.5577 24.0627 7.91071C27.1428 8.26371 30.0117 9.65176 32.2001 11.8477C34.3885 14.0436 35.7667 16.9173 36.1092 19.9986C36.1477 20.3577 36.0426 20.7175 35.817 20.9995C35.5914 21.2816 35.2634 21.463 34.9046 21.5043L34.7266 21.5317Z" fill="url(#paint0_linear_7_356)"/>
    <defs>
        <linearGradient id="paint0_linear_7_356" x1="0" y1="22.1887" x2="44" y2="22.1887" gradientUnits="userSpaceOnUse">
            <stop stop-color="#9FBFFF"/>
            <stop offset="1" stop-color="#D6B0FF"/>
        </linearGradient>
    </defs>
</svg>
