<svg width="40" height="41" viewBox="0 0 40 41" fill="none" xmlns="http://www.w3.org/2000/svg">
    <path d="M30.2617 25.2353L26.9162 27.12C26.5148 27.346 26.0503 27.4344 25.5939 27.3717C25.1374 27.309 24.714 27.0987 24.3883 26.7728L13.2224 15.6069C12.8968 15.281 12.6866 14.8576 12.6239 14.4013C12.5612 13.9449 12.6495 13.4805 12.8752 13.079L14.7599 9.73349C15.0992 9.13138 15.232 8.43476 15.1381 7.75006C15.0442 7.06535 14.7288 6.43021 14.24 5.94165L9.22578 0.927459C8.93189 0.633428 8.58295 0.400181 8.19889 0.241044C7.81484 0.0819078 7.40319 0 6.98747 0C6.57175 0 6.1601 0.0819078 5.77604 0.241044C5.39199 0.400181 5.04305 0.633428 4.74916 0.927459L2.47246 3.20256C1.14111 4.53389 0.293065 6.27209 0.0631733 8.1408C-0.166719 10.0095 0.234738 11.9014 1.20371 13.5157L2.34606 15.4197C8.1798 25.1423 16.4139 33.203 26.2587 38.8283L26.4843 38.9579C29.8473 40.8794 34.0024 40.3194 36.695 37.6283L39.0725 35.2508C39.3666 34.957 39.5998 34.608 39.759 34.224C39.9181 33.8399 40 33.4283 40 33.0125C40 32.5968 39.9181 32.1852 39.759 31.8011C39.5998 31.4171 39.3666 31.0681 39.0725 30.7742L34.0551 25.7568C33.5667 25.2674 32.9313 24.9514 32.2463 24.8572C31.5612 24.763 30.8642 24.8958 30.2617 25.2353Z" fill="url(#paint0_linear_40_461)"/>
    <defs>
        <linearGradient id="paint0_linear_40_461" x1="0" y1="20.0475" x2="40" y2="20.0475" gradientUnits="userSpaceOnUse">
            <stop stop-color="#283487"/>
            <stop offset="1" stop-color="#55178C"/>
        </linearGradient>
    </defs>
</svg>
