<svg width="44" height="44" viewBox="0 0 44 44" fill="none" xmlns="http://www.w3.org/2000/svg">
    <path d="M44 22C44 19.1109 43.431 16.2501 42.3254 13.581C41.2197 10.9118 39.5992 8.48654 37.5564 6.44365C35.5135 4.40076 33.0882 2.78025 30.419 1.67465C27.7499 0.569047 24.8891 0 22 0C16.1652 0 10.5695 2.31785 6.44365 6.44365C2.31785 10.5695 0 16.1652 0 22C0 27.8348 2.31785 33.4305 6.44365 37.5564C10.5695 41.6822 16.1652 44 22 44C27.8348 44 33.4305 41.6822 37.5564 37.5564C41.6822 33.4305 44 27.8348 44 22ZM39.446 19.8H33C32.6372 14.6259 30.8644 9.64997 27.874 5.412C30.9462 6.50313 33.655 8.42616 35.6983 10.9667C37.7416 13.5072 39.039 16.5653 39.446 19.8ZM15.576 24.2H28.6C28.037 29.6353 25.7203 34.7397 22 38.742C18.2822 34.7564 16.0186 29.6324 15.576 24.2ZM15.576 19.8C16.0883 14.392 18.3427 9.29658 22 5.28C25.7504 9.25347 28.0723 14.3617 28.6 19.8H15.576ZM16.368 5.346C13.3618 9.60745 11.5606 14.6008 11.154 19.8H4.554C4.96959 16.5253 6.29774 13.4335 8.38677 10.8776C10.4758 8.32177 13.2415 6.40493 16.368 5.346ZM4.554 24.2H11.154C11.5163 29.3948 13.3053 34.3888 16.324 38.632C13.2087 37.5679 10.4544 35.6514 8.37379 33.1003C6.29321 30.5491 4.96983 27.4656 4.554 24.2ZM27.764 38.61C30.7745 34.3655 32.5835 29.3871 33 24.2H39.49C39.074 27.4565 37.7554 30.5318 35.6832 33.0782C33.6111 35.6247 30.868 37.5408 27.764 38.61Z" fill="url(#paint0_linear_25_614)"/>
    <defs>
        <linearGradient id="paint0_linear_25_614" x1="0" y1="22.1887" x2="44" y2="22.1887" gradientUnits="userSpaceOnUse">
            <stop stop-color="#9FBFFF"/>
            <stop offset="1" stop-color="#D6B0FF"/>
        </linearGradient>
    </defs>
</svg>
