<svg width="28" height="38" viewBox="0 0 28 38" fill="none" xmlns="http://www.w3.org/2000/svg">
    <path d="M27.1203 18.8487C27.286 18.4053 27.4237 17.948 27.5427 17.4883C27.5637 17.409 27.5893 17.3343 27.608 17.255C27.713 16.8233 27.7877 16.3823 27.8507 15.939C27.8647 15.8363 27.8903 15.7337 27.902 15.631C27.965 15.092 28 14.5483 28 14C28 6.28133 21.7187 0 14 0C6.28133 0 0 6.28133 0 14C0 14.5483 0.0349997 15.092 0.100333 15.6287C0.112 15.7337 0.135333 15.834 0.149333 15.9367C0.212333 16.38 0.287 16.821 0.392 17.2527C0.410666 17.332 0.436333 17.409 0.457333 17.486C0.576333 17.9457 0.714 18.403 0.879667 18.8463C0.896 18.8883 0.914666 18.9303 0.928666 18.9723C1.113 19.4507 1.31833 19.9197 1.554 20.3747L1.582 20.426C1.827 20.8973 2.09767 21.3547 2.39633 21.798C2.40567 21.812 2.415 21.8237 2.422 21.8377C2.71367 22.2693 3.031 22.6823 3.36933 23.0813L3.451 23.177C3.759 23.534 4.09267 23.8723 4.438 24.199C4.515 24.2713 4.58733 24.3437 4.66667 24.4137C4.76933 24.5047 4.86033 24.6073 4.96767 24.696C5.03067 24.7497 5.10767 24.7847 5.17767 24.829C5.40867 25.0203 5.628 25.221 5.873 25.3983C5.971 25.4683 6.03167 25.536 6.11567 25.606C7.72567 26.943 6.93933 28 8.73133 28H19.2687C21.0583 28 20.2743 26.943 21.8867 25.606C21.9707 25.536 22.0313 25.4707 22.1293 25.3983C22.3743 25.221 22.5937 25.0203 22.8247 24.829C22.8923 24.7823 22.9693 24.7497 23.0347 24.696C23.1397 24.6073 23.233 24.5047 23.3357 24.4137C23.4127 24.3437 23.4873 24.269 23.5643 24.199C23.9097 23.8723 24.241 23.534 24.5513 23.177L24.633 23.0813C24.9713 22.6823 25.2887 22.2693 25.5803 21.8377C25.5897 21.8237 25.599 21.812 25.606 21.798C25.9023 21.357 26.173 20.8997 26.418 20.4283L26.446 20.377C26.6817 19.922 26.887 19.453 27.0713 18.9747C27.0853 18.9303 27.104 18.8907 27.1203 18.8487ZM22.2483 14.1097C21.9389 14.1097 21.6422 13.9867 21.4234 13.768C21.2046 13.5492 21.0817 13.2524 21.0817 12.943C21.0817 9.387 17.8733 7 15.2483 7C14.9389 7 14.6422 6.87708 14.4234 6.65829C14.2046 6.4395 14.0817 6.14275 14.0817 5.83333C14.0817 5.52391 14.2046 5.22717 14.4234 5.00838C14.6422 4.78958 14.9389 4.66667 15.2483 4.66667C19.2593 4.66667 23.415 7.62067 23.415 12.943C23.415 13.2524 23.2921 13.5492 23.0733 13.768C22.8545 13.9867 22.5578 14.1097 22.2483 14.1097ZM13.8577 35H8.73133L12.9383 37.1513C13.2653 37.3187 13.6272 37.4066 13.9945 37.4078C14.3618 37.409 14.7243 37.3236 15.0523 37.1583L19.32 35H13.8577ZM21.0817 31.5C21.0817 31.1906 20.9587 30.8938 20.74 30.675C20.5212 30.4562 20.2244 30.3333 19.915 30.3333H8.24833C7.93891 30.3333 7.64217 30.4562 7.42338 30.675C7.20458 30.8938 7.08167 31.1906 7.08167 31.5C7.08167 31.8094 7.20458 32.1062 7.42338 32.325C7.64217 32.5438 7.93891 32.6667 8.24833 32.6667H19.915C20.2244 32.6667 20.5212 32.5438 20.74 32.325C20.9587 32.1062 21.0817 31.8094 21.0817 31.5Z" fill="url(#paint0_linear_5_721)"/>
    <defs>
        <linearGradient id="paint0_linear_5_721" x1="0" y1="18.7039" x2="28" y2="18.7039" gradientUnits="userSpaceOnUse">
            <stop stop-color="#283487"/>
            <stop offset="1" stop-color="#55178C"/>
        </linearGradient>
    </defs>
</svg>
