<svg width="37" height="45" viewBox="0 0 37 45" fill="none" xmlns="http://www.w3.org/2000/svg">
    <path d="M35.9085 7.65699L19.2585 0.162642C19.02 0.0554324 18.7615 0 18.5 0C18.2385 0 17.98 0.0554324 17.7415 0.162642L1.09151 7.65699C0.76635 7.80315 0.49035 8.04015 0.29671 8.33947C0.10307 8.6388 3.68294e-05 8.98769 6.34033e-06 9.34419V26.662C-0.00152104 27.9796 0.272928 29.2829 0.805677 30.4879C1.33843 31.693 2.11766 32.7731 3.09321 33.6587L12.3432 42.0207C14.0283 43.5517 16.2233 44.4 18.5 44.4C20.7767 44.4 22.9717 43.5517 24.6568 42.0207L33.9068 33.6587C34.8823 32.7731 35.6616 31.693 36.1943 30.4879C36.7271 29.2829 37.0015 27.9796 37 26.662V9.34419C37 8.98769 36.8969 8.6388 36.7033 8.33947C36.5096 8.04015 36.2337 7.80315 35.9085 7.65699ZM27.2135 17.9578L17.9635 27.2078C17.6166 27.5546 17.1461 27.7494 16.6556 27.7494C16.165 27.7494 15.6945 27.5546 15.3476 27.2078L9.7976 21.6578C9.46061 21.3089 9.27414 20.8416 9.27836 20.3565C9.28257 19.8714 9.47713 19.4074 9.82014 19.0644C10.1631 18.7214 10.6271 18.5269 11.1122 18.5226C11.5973 18.5184 12.0646 18.7049 12.4135 19.0419L16.65 23.2839L24.592 15.3419C24.941 15.0049 25.4083 14.8184 25.8933 14.8226C26.3784 14.8269 26.8424 15.0214 27.1854 15.3644C27.5284 15.7074 27.723 16.1714 27.7272 16.6565C27.7314 17.1416 27.5449 17.6089 27.2079 17.9578H27.2135Z" fill="url(#paint0_linear_5_835)"/>
    <defs>
        <linearGradient id="paint0_linear_5_835" x1="0" y1="22.3904" x2="37" y2="22.3904" gradientUnits="userSpaceOnUse">
            <stop stop-color="#9FBFFF"/>
            <stop offset="1" stop-color="#D6B0FF"/>
        </linearGradient>
    </defs>
</svg>
