<svg width="25" height="25" viewBox="0 0 25 25" fill="none" xmlns="http://www.w3.org/2000/svg">
    <path d="M23.0122 0.000174786H1.83747C1.59945 -0.00313094 1.36311 0.0404836 1.14194 0.128528C0.920775 0.216572 0.719119 0.347321 0.548489 0.513308C0.377859 0.679294 0.241598 0.877268 0.147488 1.09592C0.0533772 1.31457 0.00326045 1.54963 0 1.78765V23.2123C0.00326045 23.4504 0.0533772 23.6854 0.147488 23.9041C0.241598 24.1227 0.377859 24.3207 0.548489 24.4867C0.719119 24.6527 0.920775 24.7834 1.14194 24.8715C1.36311 24.9595 1.59945 25.0031 1.83747 24.9998H23.0122C23.2502 25.0031 23.4865 24.9595 23.7077 24.8715C23.9289 24.7834 24.1305 24.6527 24.3012 24.4867C24.4718 24.3207 24.6081 24.1227 24.7022 23.9041C24.7963 23.6854 24.8464 23.4504 24.8497 23.2123V1.78765C24.8464 1.54963 24.7963 1.31457 24.7022 1.09592C24.6081 0.877268 24.4718 0.679294 24.3012 0.513308C24.1305 0.347321 23.9289 0.216572 23.7077 0.128528C23.4865 0.0404836 23.2502 -0.00313094 23.0122 0.000174786ZM7.53739 20.9249H3.78745V9.67504H7.53739V20.9249ZM5.66242 8.10006C5.14526 8.10006 4.64927 7.89462 4.28358 7.52893C3.91789 7.16324 3.71245 6.66725 3.71245 6.15009C3.71245 5.63292 3.91789 5.13694 4.28358 4.77125C4.64927 4.40556 5.14526 4.20012 5.66242 4.20012C5.93704 4.16897 6.21513 4.19618 6.4785 4.27997C6.74187 4.36375 6.98458 4.50222 7.19072 4.68631C7.39686 4.8704 7.5618 5.09595 7.67473 5.3482C7.78766 5.60045 7.84604 5.87371 7.84604 6.15009C7.84604 6.42646 7.78766 6.69972 7.67473 6.95197C7.5618 7.20423 7.39686 7.42978 7.19072 7.61387C6.98458 7.79795 6.74187 7.93642 6.4785 8.02021C6.21513 8.10399 5.93704 8.1312 5.66242 8.10006ZM21.0622 20.9249H17.3123V14.8875C17.3123 13.375 16.7748 12.3875 15.4123 12.3875C14.9906 12.3906 14.58 12.5228 14.2358 12.7665C13.8917 13.0101 13.6304 13.3533 13.4873 13.75C13.3895 14.0438 13.3471 14.3532 13.3623 14.6625V20.9124H9.61237C9.61237 20.9124 9.61237 10.6875 9.61237 9.66254H13.3623V11.25C13.703 10.6589 14.1984 10.1719 14.7953 9.84154C15.3923 9.51115 16.068 9.34986 16.7498 9.37504C19.2497 9.37504 21.0622 10.9875 21.0622 14.45V20.9249Z" fill="#390269"/>
</svg>
