<svg width="26" height="25" viewBox="0 0 26 25" fill="none" xmlns="http://www.w3.org/2000/svg">
    <path fill-rule="evenodd" clip-rule="evenodd" d="M3.7793 0H22.9199C24.5379 0 25.8496 1.31167 25.8496 2.92969V22.0703C25.8496 23.6883 24.5379 25 22.9199 25H3.7793C2.16128 25 0.849609 23.6883 0.849609 22.0703V2.92969C0.849609 1.31167 2.16128 0 3.7793 0ZM20.8121 4.88281H18.2277L13.9691 9.75078L10.2871 4.88281H4.95432L11.3262 13.2148L5.28713 20.1172H7.87304L12.534 14.7914L16.6074 20.1172H21.8082L15.166 11.3359L20.8121 4.88281ZM18.7527 18.5703H17.3207L7.97226 6.34844H9.50898L18.7527 18.5703Z" fill="#390269"/>
</svg>
